<svg xmlns="http://www.w3.org/2000/svg" viewBox="0 0 273.5 53"><defs><style>.cls-1,.cls-8{fill:#f9423a;}.cls-1,.cls-2,.cls-3,.cls-7,.cls-8,.cls-9{stroke:#fff;}.cls-1,.cls-2,.cls-3,.cls-4,.cls-5,.cls-7,.cls-8,.cls-9{stroke-miterlimit:10;}.cls-1,.cls-3,.cls-4,.cls-7{stroke-width:3px;}.cls-2,.cls-3,.cls-4,.cls-5,.cls-6,.cls-9{fill:#fff;}.cls-2,.cls-5{stroke-width:2px;}.cls-4,.cls-5{stroke:#f9423a;}.cls-7{fill:none;}.cls-8,.cls-9{stroke-width:2.55px;}</style></defs><title>Asset 13</title><g id="Layer_2" data-name="Layer 2"><g id="Layer_11" data-name="Layer 11"><circle class="cls-1" cx="26.5" cy="26.5" r="25"/><rect class="cls-2" x="18.12" y="18.12" width="16.76" height="16.76"/></g><g id="Layer_10" data-name="Layer 10"><circle class="cls-1" cx="81.63" cy="26.5" r="25"/><line class="cls-3" x1="64.13" y1="26.5" x2="99.13" y2="26.5"/><circle class="cls-4" cx="74.38" cy="26.83" r="5"/><line class="cls-3" x1="69.13" y1="38.75" x2="94.13" y2="38.75"/><circle class="cls-4" cx="81.38" cy="39.08" r="5"/><line class="cls-3" x1="69.13" y1="14.75" x2="94.13" y2="14.75"/><circle class="cls-4" cx="85.38" cy="15.08" r="5"/></g><g id="Layer_9" data-name="Layer 9"><circle class="cls-1" cx="136.96" cy="26.5" r="25"/><circle class="cls-5" cx="131.7" cy="30.93" r="10.01"/><circle class="cls-5" cx="136.28" cy="26.35" r="10.01"/><circle class="cls-5" cx="140.87" cy="21.77" r="10.01"/></g><g id="Layer_8" data-name="Layer 8"><circle class="cls-1" cx="192.07" cy="26.5" r="25"/><line class="cls-6" x1="192.07" y1="12.5" x2="192.07" y2="36.17"/><line class="cls-7" x1="192.07" y1="12.5" x2="192.07" y2="24.33"/><polygon class="cls-6" points="183.84 21.92 192.07 36.17 200.3 21.92 183.84 21.92"/><line class="cls-3" x1="181.24" y1="39.5" x2="202.9" y2="39.5"/></g><g id="Layer_7" data-name="Layer 7"><circle class="cls-1" cx="247" cy="26.5" r="25"/><rect class="cls-8" x="233.79" y="20.41" width="9.07" height="12.47"/><polygon class="cls-8" points="242.86 20.41 252.21 14.46 252.21 38.54 242.86 32.88 242.86 20.41"/><line class="cls-9" x1="255.86" y1="22.48" x2="264.23" y2="30.85"/><line class="cls-9" x1="264.23" y1="22.48" x2="255.86" y2="30.85"/></g></g></svg>