<svg xmlns="http://www.w3.org/2000/svg" viewBox="0 0 273.88 53"><defs><style>.cls-1,.cls-2,.cls-8{fill:#fff;}.cls-1,.cls-3,.cls-7,.cls-8{stroke:#f9423a;}.cls-1,.cls-3,.cls-5,.cls-6,.cls-7,.cls-8{stroke-miterlimit:10;}.cls-1,.cls-5,.cls-7{stroke-width:3px;}.cls-3,.cls-7{fill:none;}.cls-3,.cls-6{stroke-width:2px;}.cls-4,.cls-5,.cls-6{fill:#f9423a;}.cls-5,.cls-6{stroke:#fff;}.cls-8{stroke-width:2.55px;}</style></defs><title>Asset 12</title><g id="Layer_2" data-name="Layer 2"><g id="Layer_6" data-name="Layer 6"><circle class="cls-1" cx="26.5" cy="26.5" r="25"/><line class="cls-2" x1="18.44" y1="26.33" x2="42.11" y2="26.33"/><line class="cls-3" x1="18.44" y1="26.33" x2="22.16" y2="26.33"/><polygon class="cls-4" points="18.11 40.2 42.11 26.33 18.11 12.47 18.11 40.2"/></g><g id="Layer_5" data-name="Layer 5"><circle class="cls-1" cx="82" cy="26.5" r="25"/><line class="cls-1" x1="64.5" y1="26.5" x2="99.5" y2="26.5"/><circle class="cls-5" cx="74.75" cy="26.83" r="5"/><line class="cls-1" x1="69.5" y1="38.75" x2="94.5" y2="38.75"/><circle class="cls-5" cx="81.75" cy="39.08" r="5"/><line class="cls-1" x1="69.5" y1="14.75" x2="94.5" y2="14.75"/><circle class="cls-5" cx="85.75" cy="15.08" r="5"/></g><g id="Layer_4" data-name="Layer 4"><circle class="cls-1" cx="137.33" cy="26.5" r="25"/><circle class="cls-6" cx="132.08" cy="30.93" r="10.01"/><circle class="cls-6" cx="136.66" cy="26.35" r="10.01"/><circle class="cls-6" cx="141.24" cy="21.77" r="10.01"/></g><g id="Layer_3" data-name="Layer 3"><circle class="cls-1" cx="192.44" cy="26.5" r="25"/><line class="cls-2" x1="192.44" y1="12.5" x2="192.44" y2="36.17"/><line class="cls-7" x1="192.44" y1="12.5" x2="192.44" y2="24.33"/><polygon class="cls-4" points="184.22 21.92 192.44 36.17 200.67 21.92 184.22 21.92"/><line class="cls-1" x1="181.61" y1="39.5" x2="203.28" y2="39.5"/></g><g id="Layer_2-2" data-name="Layer 2"><circle class="cls-1" cx="247.38" cy="26.5" r="25"/><rect class="cls-8" x="234.17" y="20.41" width="9.07" height="12.47"/><polygon class="cls-8" points="243.23 20.41 252.58 14.46 252.58 38.54 243.23 32.88 243.23 20.41"/><line class="cls-8" x1="257.42" y1="16.75" x2="257.42" y2="36.58"/><line class="cls-8" x1="261.42" y1="20.75" x2="261.42" y2="32.58"/></g></g></svg>